<svg xmlns="http://www.w3.org/2000/svg" xmlns:xlink="http://www.w3.org/1999/xlink" width="512" zoomAndPan="magnify" viewBox="0 0 384 383.999986" height="512" preserveAspectRatio="xMidYMid meet" version="1.0"><defs><g/></defs><g fill="#418192" fill-opacity="1"><g transform="translate(-9.186086, 233.214326)"><g><path d="M 201.109375 0 L 17.046875 0 L 17.046875 -152.859375 L 192.703125 -152.859375 L 192.703125 -115.046875 L 81.171875 -115.046875 L 81.171875 -91.078125 L 175.4375 -91.078125 L 175.4375 -61.671875 L 81.171875 -61.671875 L 81.171875 -37.8125 L 201.109375 -37.8125 Z M 201.109375 0 "/></g></g></g><g fill="#418192" fill-opacity="1"><g transform="translate(189.523672, 233.214326)"><g><path d="M 186.203125 0 L 9.59375 0 L 9.59375 -37.703125 L 110.671875 -115.046875 L 9.59375 -115.046875 L 9.59375 -152.75 L 186.203125 -152.75 L 186.203125 -115.046875 L 85 -37.703125 L 186.203125 -37.703125 Z M 186.203125 0 "/></g></g></g><g fill="#418192" fill-opacity="1"><g transform="translate(4.521814, 306.045976)"><g><path d="M 48.234375 1.375 C 32.460938 1.375 20.859375 -1.867188 13.421875 -8.359375 C 6.847656 -14.078125 3.5625 -21.898438 3.5625 -31.828125 C 3.5625 -41.753906 6.847656 -49.59375 13.421875 -55.34375 C 20.859375 -61.8125 32.460938 -65.046875 48.234375 -65.046875 C 57.484375 -65.046875 65.128906 -63.984375 71.171875 -61.859375 C 77.222656 -59.742188 81.921875 -56.847656 85.265625 -53.171875 C 88.617188 -49.492188 90.84375 -45.285156 91.9375 -40.546875 L 63.796875 -40.546875 C 60.984375 -45.492188 55.796875 -47.96875 48.234375 -47.96875 C 41.773438 -47.96875 37.019531 -46.097656 33.96875 -42.359375 C 31.53125 -39.398438 30.3125 -35.890625 30.3125 -31.828125 C 30.3125 -27.765625 31.53125 -24.253906 33.96875 -21.296875 C 37.019531 -17.554688 41.773438 -15.6875 48.234375 -15.6875 C 55.796875 -15.6875 60.984375 -18.175781 63.796875 -23.15625 L 91.9375 -23.15625 C 90.84375 -18.382812 88.617188 -14.160156 85.265625 -10.484375 C 81.921875 -6.816406 77.222656 -3.921875 71.171875 -1.796875 C 65.128906 0.316406 57.484375 1.375 48.234375 1.375 Z M 48.234375 1.375 "/></g></g></g><g fill="#418192" fill-opacity="1"><g transform="translate(95.454283, 306.045976)"><g><path d="M 48.234375 1.375 C 32.460938 1.375 20.859375 -1.867188 13.421875 -8.359375 C 6.847656 -14.109375 3.5625 -21.945312 3.5625 -31.875 C 3.5625 -41.769531 6.847656 -49.59375 13.421875 -55.34375 C 20.859375 -61.832031 32.460938 -65.078125 48.234375 -65.078125 C 64.003906 -65.078125 75.609375 -61.832031 83.046875 -55.34375 C 89.617188 -49.59375 92.90625 -41.769531 92.90625 -31.875 C 92.90625 -21.945312 89.617188 -14.109375 83.046875 -8.359375 C 75.609375 -1.867188 64.003906 1.375 48.234375 1.375 Z M 48.234375 -15.734375 C 54.691406 -15.734375 59.4375 -17.585938 62.46875 -21.296875 C 64.894531 -24.285156 66.109375 -27.8125 66.109375 -31.875 C 66.109375 -35.9375 64.894531 -39.445312 62.46875 -42.40625 C 59.4375 -46.144531 54.691406 -48.015625 48.234375 -48.015625 C 41.773438 -48.015625 37.019531 -46.144531 33.96875 -42.40625 C 31.53125 -39.445312 30.3125 -35.9375 30.3125 -31.875 C 30.3125 -27.8125 31.53125 -24.285156 33.96875 -21.296875 C 37.019531 -17.585938 41.773438 -15.734375 48.234375 -15.734375 Z M 48.234375 -15.734375 "/></g></g></g><g fill="#418192" fill-opacity="1"><g transform="translate(187.364719, 306.045976)"><g><path d="M 33.875 0 L 7.109375 0 L 7.109375 -63.796875 L 50.640625 -63.796875 C 61.035156 -63.796875 69.425781 -63.015625 75.8125 -61.453125 C 82.207031 -59.898438 86.867188 -57.457031 89.796875 -54.125 C 92.734375 -50.789062 94.203125 -46.441406 94.203125 -41.078125 C 94.203125 -35.742188 92.734375 -31.410156 89.796875 -28.078125 C 86.867188 -24.742188 82.207031 -22.296875 75.8125 -20.734375 C 69.425781 -19.179688 61.035156 -18.40625 50.640625 -18.40625 L 33.875 -18.40625 Z M 33.875 -34.140625 L 49.171875 -34.1875 C 53.441406 -34.1875 56.804688 -34.351562 59.265625 -34.6875 C 61.722656 -35.03125 63.535156 -35.515625 64.703125 -36.140625 C 65.878906 -36.765625 66.628906 -37.5 66.953125 -38.34375 C 67.273438 -39.1875 67.4375 -40.097656 67.4375 -41.078125 C 67.4375 -42.085938 67.273438 -43.015625 66.953125 -43.859375 C 66.628906 -44.703125 65.878906 -45.429688 64.703125 -46.046875 C 63.535156 -46.671875 61.722656 -47.15625 59.265625 -47.5 C 56.804688 -47.84375 53.441406 -48.015625 49.171875 -48.015625 L 33.875 -48.015625 Z M 33.875 -34.140625 "/></g></g></g><g fill="#418192" fill-opacity="1"><g transform="translate(280.564303, 306.045976)"><g><path d="M 62.234375 0 L 35.46875 0 L 35.46875 -30.234375 L 0.671875 -63.796875 L 30.3125 -63.796875 L 48.859375 -44.71875 L 67.359375 -63.796875 L 97 -63.796875 L 62.234375 -30.234375 Z M 62.234375 0 "/></g></g></g></svg>